<mxfile host="app.diagrams.net" agent="Mozilla/5.0 (X11; Linux x86_64) AppleWebKit/537.36 (KHTML, like Gecko) Chrome/128.0.0.0 Safari/537.36" version="24.7.16">
  <diagram id="C5RBs43oDa-KdzZeNtuy" name="Page-1">
    <mxGraphModel dx="810" dy="410" grid="1" gridSize="10" guides="1" tooltips="1" connect="1" arrows="1" fold="1" page="1" pageScale="1" pageWidth="827" pageHeight="1169" math="0" shadow="0">
      <root>
        <mxCell id="WIyWlLk6GJQsqaUBKTNV-0" />
        <mxCell id="WIyWlLk6GJQsqaUBKTNV-1" parent="WIyWlLk6GJQsqaUBKTNV-0" />
        <mxCell id="WIyWlLk6GJQsqaUBKTNV-2" value="" style="rounded=0;html=1;jettySize=auto;orthogonalLoop=1;fontSize=11;endArrow=block;endFill=0;endSize=8;strokeWidth=1;shadow=0;labelBackgroundColor=none;edgeStyle=orthogonalEdgeStyle;" parent="WIyWlLk6GJQsqaUBKTNV-1" source="WIyWlLk6GJQsqaUBKTNV-3" edge="1">
          <mxGeometry relative="1" as="geometry">
            <mxPoint x="239" y="170" as="targetPoint" />
          </mxGeometry>
        </mxCell>
        <mxCell id="WIyWlLk6GJQsqaUBKTNV-3" value="Iniciou" style="rounded=1;whiteSpace=wrap;html=1;fontSize=12;glass=0;strokeWidth=1;shadow=0;" parent="WIyWlLk6GJQsqaUBKTNV-1" vertex="1">
          <mxGeometry x="179" y="80" width="120" height="40" as="geometry" />
        </mxCell>
        <mxCell id="jpIQZNQABtX-8I1oOudm-7" value="" style="edgeStyle=orthogonalEdgeStyle;rounded=0;orthogonalLoop=1;jettySize=auto;html=1;entryX=0.5;entryY=0;entryDx=0;entryDy=0;" edge="1" parent="WIyWlLk6GJQsqaUBKTNV-1" source="jpIQZNQABtX-8I1oOudm-0" target="jpIQZNQABtX-8I1oOudm-3">
          <mxGeometry relative="1" as="geometry" />
        </mxCell>
        <mxCell id="jpIQZNQABtX-8I1oOudm-8" value="" style="edgeStyle=orthogonalEdgeStyle;rounded=0;orthogonalLoop=1;jettySize=auto;html=1;" edge="1" parent="WIyWlLk6GJQsqaUBKTNV-1" source="jpIQZNQABtX-8I1oOudm-0" target="jpIQZNQABtX-8I1oOudm-4">
          <mxGeometry relative="1" as="geometry" />
        </mxCell>
        <mxCell id="jpIQZNQABtX-8I1oOudm-9" style="edgeStyle=orthogonalEdgeStyle;rounded=0;orthogonalLoop=1;jettySize=auto;html=1;entryX=0.5;entryY=0;entryDx=0;entryDy=0;" edge="1" parent="WIyWlLk6GJQsqaUBKTNV-1" source="jpIQZNQABtX-8I1oOudm-0" target="jpIQZNQABtX-8I1oOudm-5">
          <mxGeometry relative="1" as="geometry" />
        </mxCell>
        <mxCell id="jpIQZNQABtX-8I1oOudm-0" value="Notificação" style="shape=document;whiteSpace=wrap;html=1;boundedLbl=1;" vertex="1" parent="WIyWlLk6GJQsqaUBKTNV-1">
          <mxGeometry x="179" y="170" width="120" height="80" as="geometry" />
        </mxCell>
        <mxCell id="jpIQZNQABtX-8I1oOudm-12" style="edgeStyle=orthogonalEdgeStyle;rounded=0;orthogonalLoop=1;jettySize=auto;html=1;entryX=0;entryY=0;entryDx=0;entryDy=0;" edge="1" parent="WIyWlLk6GJQsqaUBKTNV-1" source="jpIQZNQABtX-8I1oOudm-3" target="jpIQZNQABtX-8I1oOudm-10">
          <mxGeometry relative="1" as="geometry">
            <Array as="points">
              <mxPoint x="100" y="500" />
              <mxPoint x="222" y="500" />
            </Array>
          </mxGeometry>
        </mxCell>
        <mxCell id="jpIQZNQABtX-8I1oOudm-3" value="&lt;b&gt;Advertencia&lt;/b&gt;:&amp;nbsp;&lt;div&gt;Verificação:&lt;/div&gt;&lt;div&gt;1. data&lt;/div&gt;&lt;div&gt;2. hora&lt;/div&gt;&lt;div&gt;3. torre&lt;/div&gt;&lt;div&gt;4. apartamento&lt;/div&gt;&lt;div&gt;5. descrição da infração&lt;/div&gt;&lt;div&gt;6. artigo&lt;/div&gt;&lt;div&gt;7. morador(a)&lt;/div&gt;" style="shape=process;whiteSpace=wrap;html=1;backgroundOutline=1;" vertex="1" parent="WIyWlLk6GJQsqaUBKTNV-1">
          <mxGeometry x="39" y="321" width="120" height="159" as="geometry" />
        </mxCell>
        <mxCell id="jpIQZNQABtX-8I1oOudm-11" value="" style="edgeStyle=orthogonalEdgeStyle;rounded=0;orthogonalLoop=1;jettySize=auto;html=1;" edge="1" parent="WIyWlLk6GJQsqaUBKTNV-1" source="jpIQZNQABtX-8I1oOudm-4" target="jpIQZNQABtX-8I1oOudm-10">
          <mxGeometry relative="1" as="geometry" />
        </mxCell>
        <mxCell id="jpIQZNQABtX-8I1oOudm-4" value="&lt;span style=&quot;color: rgb(0, 0, 0); font-family: Helvetica; font-size: 12px; font-style: normal; font-variant-ligatures: normal; font-variant-caps: normal; letter-spacing: normal; orphans: 2; text-align: center; text-indent: 0px; text-transform: none; widows: 2; word-spacing: 0px; -webkit-text-stroke-width: 0px; white-space: normal; background-color: rgb(251, 251, 251); text-decoration-thickness: initial; text-decoration-style: initial; text-decoration-color: initial; float: none; display: inline !important;&quot;&gt;&lt;b&gt;Multa&lt;/b&gt;&lt;/span&gt;&lt;span style=&quot;color: rgb(0, 0, 0); font-family: Helvetica; font-size: 12px; font-style: normal; font-variant-ligatures: normal; font-variant-caps: normal; font-weight: 400; letter-spacing: normal; orphans: 2; text-align: center; text-indent: 0px; text-transform: none; widows: 2; word-spacing: 0px; -webkit-text-stroke-width: 0px; white-space: normal; background-color: rgb(251, 251, 251); text-decoration-thickness: initial; text-decoration-style: initial; text-decoration-color: initial; display: inline !important; float: none;&quot;&gt;:&amp;nbsp;&lt;br&gt;&lt;/span&gt;&lt;div style=&quot;forced-color-adjust: none; color: rgb(0, 0, 0); font-family: Helvetica; font-size: 12px; font-style: normal; font-variant-ligatures: normal; font-variant-caps: normal; font-weight: 400; letter-spacing: normal; orphans: 2; text-align: center; text-indent: 0px; text-transform: none; widows: 2; word-spacing: 0px; -webkit-text-stroke-width: 0px; white-space: normal; background-color: rgb(251, 251, 251); text-decoration-thickness: initial; text-decoration-style: initial; text-decoration-color: initial;&quot;&gt;&lt;span style=&quot;background-color: initial;&quot;&gt;Verificação&lt;/span&gt;:&lt;/div&gt;&lt;div style=&quot;forced-color-adjust: none; color: rgb(0, 0, 0); font-family: Helvetica; font-size: 12px; font-style: normal; font-variant-ligatures: normal; font-variant-caps: normal; font-weight: 400; letter-spacing: normal; orphans: 2; text-align: center; text-indent: 0px; text-transform: none; widows: 2; word-spacing: 0px; -webkit-text-stroke-width: 0px; white-space: normal; background-color: rgb(251, 251, 251); text-decoration-thickness: initial; text-decoration-style: initial; text-decoration-color: initial;&quot;&gt;1. data&lt;/div&gt;&lt;div style=&quot;forced-color-adjust: none; color: rgb(0, 0, 0); font-family: Helvetica; font-size: 12px; font-style: normal; font-variant-ligatures: normal; font-variant-caps: normal; font-weight: 400; letter-spacing: normal; orphans: 2; text-align: center; text-indent: 0px; text-transform: none; widows: 2; word-spacing: 0px; -webkit-text-stroke-width: 0px; white-space: normal; background-color: rgb(251, 251, 251); text-decoration-thickness: initial; text-decoration-style: initial; text-decoration-color: initial;&quot;&gt;2. hora&lt;/div&gt;&lt;div style=&quot;forced-color-adjust: none; color: rgb(0, 0, 0); font-family: Helvetica; font-size: 12px; font-style: normal; font-variant-ligatures: normal; font-variant-caps: normal; font-weight: 400; letter-spacing: normal; orphans: 2; text-align: center; text-indent: 0px; text-transform: none; widows: 2; word-spacing: 0px; -webkit-text-stroke-width: 0px; white-space: normal; background-color: rgb(251, 251, 251); text-decoration-thickness: initial; text-decoration-style: initial; text-decoration-color: initial;&quot;&gt;3. torre&lt;/div&gt;&lt;div style=&quot;forced-color-adjust: none; color: rgb(0, 0, 0); font-family: Helvetica; font-size: 12px; font-style: normal; font-variant-ligatures: normal; font-variant-caps: normal; font-weight: 400; letter-spacing: normal; orphans: 2; text-align: center; text-indent: 0px; text-transform: none; widows: 2; word-spacing: 0px; -webkit-text-stroke-width: 0px; white-space: normal; background-color: rgb(251, 251, 251); text-decoration-thickness: initial; text-decoration-style: initial; text-decoration-color: initial;&quot;&gt;4. apartamento&lt;/div&gt;&lt;div style=&quot;forced-color-adjust: none; color: rgb(0, 0, 0); font-family: Helvetica; font-size: 12px; font-style: normal; font-variant-ligatures: normal; font-variant-caps: normal; font-weight: 400; letter-spacing: normal; orphans: 2; text-align: center; text-indent: 0px; text-transform: none; widows: 2; word-spacing: 0px; -webkit-text-stroke-width: 0px; white-space: normal; background-color: rgb(251, 251, 251); text-decoration-thickness: initial; text-decoration-style: initial; text-decoration-color: initial;&quot;&gt;5. descrição da infração&lt;/div&gt;&lt;div style=&quot;forced-color-adjust: none; color: rgb(0, 0, 0); font-family: Helvetica; font-size: 12px; font-style: normal; font-variant-ligatures: normal; font-variant-caps: normal; font-weight: 400; letter-spacing: normal; orphans: 2; text-align: center; text-indent: 0px; text-transform: none; widows: 2; word-spacing: 0px; -webkit-text-stroke-width: 0px; white-space: normal; background-color: rgb(251, 251, 251); text-decoration-thickness: initial; text-decoration-style: initial; text-decoration-color: initial;&quot;&gt;6. artigo&lt;/div&gt;&lt;div style=&quot;forced-color-adjust: none; color: rgb(0, 0, 0); font-family: Helvetica; font-size: 12px; font-style: normal; font-variant-ligatures: normal; font-variant-caps: normal; font-weight: 400; letter-spacing: normal; orphans: 2; text-align: center; text-indent: 0px; text-transform: none; widows: 2; word-spacing: 0px; -webkit-text-stroke-width: 0px; white-space: normal; background-color: rgb(251, 251, 251); text-decoration-thickness: initial; text-decoration-style: initial; text-decoration-color: initial;&quot;&gt;7. morador(a)&lt;/div&gt;" style="shape=process;whiteSpace=wrap;html=1;backgroundOutline=1;" vertex="1" parent="WIyWlLk6GJQsqaUBKTNV-1">
          <mxGeometry x="179" y="320" width="120" height="160" as="geometry" />
        </mxCell>
        <mxCell id="jpIQZNQABtX-8I1oOudm-13" style="edgeStyle=orthogonalEdgeStyle;rounded=0;orthogonalLoop=1;jettySize=auto;html=1;exitX=0.5;exitY=1;exitDx=0;exitDy=0;entryX=1;entryY=0;entryDx=0;entryDy=0;" edge="1" parent="WIyWlLk6GJQsqaUBKTNV-1" source="jpIQZNQABtX-8I1oOudm-5" target="jpIQZNQABtX-8I1oOudm-10">
          <mxGeometry relative="1" as="geometry" />
        </mxCell>
        <mxCell id="jpIQZNQABtX-8I1oOudm-5" value="Cancelamento&lt;br&gt;&lt;div&gt;&lt;span style=&quot;background-color: initial;&quot;&gt;Verificação&lt;/span&gt;:&lt;/div&gt;&lt;div&gt;Em desacordo com o regulamento&lt;/div&gt;&lt;div&gt;&lt;br&gt;&lt;/div&gt;" style="shape=process;whiteSpace=wrap;html=1;backgroundOutline=1;" vertex="1" parent="WIyWlLk6GJQsqaUBKTNV-1">
          <mxGeometry x="320" y="321" width="120" height="159" as="geometry" />
        </mxCell>
        <mxCell id="jpIQZNQABtX-8I1oOudm-15" style="edgeStyle=orthogonalEdgeStyle;rounded=0;orthogonalLoop=1;jettySize=auto;html=1;entryX=0.5;entryY=0;entryDx=0;entryDy=0;" edge="1" parent="WIyWlLk6GJQsqaUBKTNV-1" source="jpIQZNQABtX-8I1oOudm-10" target="jpIQZNQABtX-8I1oOudm-14">
          <mxGeometry relative="1" as="geometry" />
        </mxCell>
        <mxCell id="jpIQZNQABtX-8I1oOudm-16" style="edgeStyle=orthogonalEdgeStyle;rounded=0;orthogonalLoop=1;jettySize=auto;html=1;exitX=1;exitY=0.5;exitDx=0;exitDy=0;entryX=0.5;entryY=0;entryDx=0;entryDy=0;" edge="1" parent="WIyWlLk6GJQsqaUBKTNV-1" target="jpIQZNQABtX-8I1oOudm-0">
          <mxGeometry relative="1" as="geometry">
            <mxPoint x="250" y="140" as="targetPoint" />
            <mxPoint x="282" y="559" as="sourcePoint" />
            <Array as="points">
              <mxPoint x="282" y="560" />
              <mxPoint x="481" y="560" />
              <mxPoint x="481" y="140" />
              <mxPoint x="239" y="140" />
            </Array>
          </mxGeometry>
        </mxCell>
        <mxCell id="jpIQZNQABtX-8I1oOudm-10" value="validação" style="rhombus;whiteSpace=wrap;html=1;" vertex="1" parent="WIyWlLk6GJQsqaUBKTNV-1">
          <mxGeometry x="202" y="520" width="80" height="80" as="geometry" />
        </mxCell>
        <mxCell id="jpIQZNQABtX-8I1oOudm-18" style="edgeStyle=orthogonalEdgeStyle;rounded=0;orthogonalLoop=1;jettySize=auto;html=1;exitX=0.5;exitY=1;exitDx=0;exitDy=0;" edge="1" parent="WIyWlLk6GJQsqaUBKTNV-1" source="jpIQZNQABtX-8I1oOudm-14" target="jpIQZNQABtX-8I1oOudm-17">
          <mxGeometry relative="1" as="geometry" />
        </mxCell>
        <mxCell id="jpIQZNQABtX-8I1oOudm-14" value="obs atualmente é em planilha&lt;div&gt;&lt;ol&gt;&lt;li&gt;torre&lt;/li&gt;&lt;li&gt;apartamento&lt;/li&gt;&lt;li&gt;nome (morador(a))&lt;/li&gt;&lt;li&gt;coluna 01 (data da infração)&lt;/li&gt;&lt;li&gt;status (multa, advertência ou cancelamento)&lt;/li&gt;&lt;li&gt;artigo&lt;/li&gt;&lt;li&gt;observação&lt;/li&gt;&lt;/ol&gt;&lt;/div&gt;" style="shape=internalStorage;whiteSpace=wrap;html=1;backgroundOutline=1;" vertex="1" parent="WIyWlLk6GJQsqaUBKTNV-1">
          <mxGeometry x="127" y="632" width="230" height="202" as="geometry" />
        </mxCell>
        <mxCell id="jpIQZNQABtX-8I1oOudm-17" value="Gerar Notificação" style="shape=process;whiteSpace=wrap;html=1;backgroundOutline=1;" vertex="1" parent="WIyWlLk6GJQsqaUBKTNV-1">
          <mxGeometry x="168" y="881" width="148" height="60" as="geometry" />
        </mxCell>
      </root>
    </mxGraphModel>
  </diagram>
</mxfile>
